<svg xmlns="http://www.w3.org/2000/svg" width="43.274" height="49.504" viewBox="0 0 43.274 49.504">
    <path fill="#4f7fe0" d="M28.709 23.514a2.531 2.531 0 1 1-2.522-2.747 2.636 2.636 0 0 1 2.522 2.747zm-11.548-2.747a2.758 2.758 0 0 0 0 5.495 2.636 2.636 0 0 0 2.522-2.747 2.62 2.62 0 0 0-2.522-2.748zM43.274 5.1v44.4c-6.23-5.511-4.237-3.686-11.474-10.421l1.311 4.579H5.069A5.084 5.084 0 0 1 0 38.563V5.1A5.084 5.084 0 0 1 5.069 0H38.2a5.084 5.084 0 0 1 5.074 5.1zm-7.047 23.464a33.171 33.171 0 0 0-3.561-14.43 12.22 12.22 0 0 0-6.949-2.6l-.346.4a16.453 16.453 0 0 1 6.157 3.143 20.993 20.993 0 0 0-18.472-.718c-.915.421-1.459.718-1.459.718a16.677 16.677 0 0 1 6.5-3.243l-.247-.3a12.22 12.22 0 0 0-6.949 2.6 33.171 33.171 0 0 0-3.561 14.43s2.077 3.589 7.542 3.762c0 0 .915-1.114 1.657-2.054a7.692 7.692 0 0 1-4.327-2.921c.364.255.964.585 1.014.619a18.01 18.01 0 0 0 15.43.866 14.146 14.146 0 0 0 2.844-1.46 7.8 7.8 0 0 1-4.476 2.945c.742.941 1.632 2 1.632 2 5.469-.168 7.571-3.757 7.571-3.757z"/>
</svg>
