<svg xmlns="http://www.w3.org/2000/svg" width="41.885" height="28.274" viewBox="0 0 41.885 28.274">
    <path fill="#00b1ff" d="M.072 29.837V6.572q0-.04.121-.767l13.693 11.713L.234 30.645a3.423 3.423 0 0 1-.162-.808zM1.89 4.189a1.741 1.741 0 0 1 .687-.121h36.876a2.287 2.287 0 0 1 .727.121L26.447 15.943 24.63 17.4l-3.595 2.949L17.44 17.4l-1.818-1.454zm.04 28.031L15.7 19.013l5.332 4.322 5.332-4.322L40.14 32.22a1.939 1.939 0 0 1-.687.121H2.576a1.829 1.829 0 0 1-.646-.121zm26.254-14.7L41.836 5.8a2.411 2.411 0 0 1 .121.767v23.27a3.1 3.1 0 0 1-.121.808z" transform="translate(-.072 -4.068)"/>
</svg>
