<svg xmlns="http://www.w3.org/2000/svg" width="49.498" height="49.495" viewBox="0 0 49.498 49.495">
    <path fill="#00b7ff" d="M25.366.563C11.392.563.563 10.775.563 24.57a23.463 23.463 0 0 0 7.79 17.757c.833.749.662 1.184.8 5.811a1.988 1.988 0 0 0 2.782 1.753c5.28-2.325 5.348-2.509 6.243-2.265 15.3 4.21 31.878-5.58 31.878-23.057C50.061 10.775 39.342.563 25.366.563zM40.26 19.037l-7.285 11.534a3.729 3.729 0 0 1-5.38.991l-5.8-4.338a1.5 1.5 0 0 0-1.8 0l-7.821 5.932a1.176 1.176 0 0 1-1.707-1.564l7.285-11.533a3.728 3.728 0 0 1 5.38-.991l5.801 4.332a1.5 1.5 0 0 0 1.8 0l7.825-5.926a1.173 1.173 0 0 1 1.705 1.559z" transform="translate(-.563 -.563)"/>
</svg>
