<svg xmlns="http://www.w3.org/2000/svg" width="49.362" height="49.496" viewBox="0 0 49.362 49.496">
    <path fill="#00aff0" d="M24.872 38.925c-8.3 0-12-4.081-12-7.144a2.607 2.607 0 0 1 2.749-2.673c3.553 0 2.625 5.108 9.254 5.108 3.384 0 5.259-1.846 5.259-3.735 0-1.136-.555-2.392-2.792-2.947l-7.375-1.846c-5.94-1.493-7.018-4.715-7.018-7.736 0-6.284 5.9-8.643 11.444-8.643 5.1 0 11.122 2.832 11.122 6.6a2.716 2.716 0 0 1-3 2.557c-3.03 0-2.471-4.2-8.588-4.2-3.03 0-4.727 1.369-4.727 3.335s2.378 2.594 4.448 3.067l5.438 1.211c5.962 1.338 7.474 4.838 7.474 8.134 0 5.106-3.923 8.918-11.8 8.918m22.86-10.073l-.06.278-.091-.495c.031.093.091.153.122.247a24.2 24.2 0 0 0 .373-4.232 23.353 23.353 0 0 0-6.857-16.53 23.679 23.679 0 0 0-7.414-5A20.638 20.638 0 0 0 24.767 1.2a23.582 23.582 0 0 0-4.42.421l.245.124-.492-.064.245-.052A13.83 13.83 0 0 0 1.789 20.57l.041-.256.085.493-.124-.237a23.164 23.164 0 0 0-.355 4.03 23.534 23.534 0 0 0 1.823 9.107 22.539 22.539 0 0 0 5.005 7.443 23.358 23.358 0 0 0 7.414 5.036 23.045 23.045 0 0 0 13.16 1.483l-.245-.128.495.095-.278.062a13.805 13.805 0 0 0 20.6-12.046 13.965 13.965 0 0 0-1.759-6.736" transform="translate(-.048)"/>
</svg>
