<svg xmlns="http://www.w3.org/2000/svg" width="47.254" height="49.504" viewBox="0 0 47.254 49.504">
    <path fill="#665ca7" d="M23.3 0c-4 .058-12.591.71-17.4 5.089C2.334 8.616 1.087 13.816.942 20.255.817 26.67.672 38.716 12.352 42v4.99s-.079 2 1.249 2.413c1.639.516 2.572-1.029 4.128-2.679l2.9-3.259a45.308 45.308 0 0 0 14.813-1.091c1.618-.516 10.748-1.673 12.242-13.721 1.535-12.44-.747-20.278-4.855-23.826h-.021C41.568 3.688 36.589.078 25.449.037c0 0-.822-.052-2.153-.033zm.139 3.5c1.131-.006 1.826.041 1.826.041 9.419.021 13.923 2.846 14.981 3.8 3.465 2.948 5.245 10.016 3.942 20.4-1.245 10.066-8.651 10.705-10.02 11.138A42.185 42.185 0 0 1 21.4 39.956s-5.06 6.066-6.637 7.634a.826.826 0 0 1-.726.309c-.27-.062-.353-.392-.332-.846l.041-8.29c-9.9-2.723-9.317-13-9.213-18.362.124-5.363 1.141-9.761 4.149-12.731 4.06-3.65 11.358-4.145 14.75-4.17zm.747 5.363a.622.622 0 0 0-.44.18.617.617 0 0 0 .44 1.056 11.719 11.719 0 0 1 8.361 3.28c2.261 2.186 3.363 5.115 3.4 8.952a.621.621 0 0 0 .622.619v-.019a.621.621 0 0 0 .622-.619 13.264 13.264 0 0 0-3.755-9.812 12.854 12.854 0 0 0-9.257-3.63zm-8.2 1.423a1.991 1.991 0 0 0-1.276.248h-.025a9.832 9.832 0 0 0-2.385 1.943 3.826 3.826 0 0 0-.956 1.957 2.544 2.544 0 0 0 .1 1.116l.041.021a28.228 28.228 0 0 0 2.49 5.363 31.74 31.74 0 0 0 4.813 6.541l.062.083.083.062.062.062.062.062a32.361 32.361 0 0 0 6.6 4.806 30.377 30.377 0 0 0 5.4 2.475v.021a2.971 2.971 0 0 0 .826.124 3.828 3.828 0 0 0 2.286-.974 9.325 9.325 0 0 0 1.929-2.368v-.021a1.751 1.751 0 0 0-.373-2.312 28.279 28.279 0 0 0-4.46-3.177 2.034 2.034 0 0 0-2.572.351l-.934 1.174a1.7 1.7 0 0 1-1.348.5l-.025.021c-6.473-1.65-8.195-8.166-8.195-8.166a1.632 1.632 0 0 1 .519-1.341l1.162-.928a2.041 2.041 0 0 0 .353-2.578 27.9 27.9 0 0 0-3.195-4.435 1.751 1.751 0 0 0-1.046-.619zm9.28 1.836a.619.619 0 1 0 0 1.238 7.863 7.863 0 0 1 5.5 2.372 7.194 7.194 0 0 1 1.867 5.3.621.621 0 0 0 .622.617l.021.025a.624.624 0 0 0 .441-.182.617.617 0 0 0 .182-.439 8.48 8.48 0 0 0-2.22-6.167 9.071 9.071 0 0 0-6.328-2.764.626.626 0 0 0-.087 0zm1.017 3.339a.63.63 0 1 0-.037 1.26c2.054.1 3.05 1.134 3.174 3.259a.621.621 0 0 0 .622.6h.021a.624.624 0 0 0 .442-.2.617.617 0 0 0 .16-.457C30.511 17.159 29 15.61 26.3 15.466h-.025z" transform="translate(-.916)"/>
</svg>
