<svg xmlns="http://www.w3.org/2000/svg" width="47.357" height="47.357" viewBox="0 0 47.357 47.357">
    <path fill="#25d366" d="M40.264 9.132A23.475 23.475 0 0 0 3.33 37.451L0 49.607l12.442-3.266a23.4 23.4 0 0 0 11.216 2.854h.011a23.693 23.693 0 0 0 23.688-23.467 23.559 23.559 0 0 0-7.093-16.6zm-16.6 36.11a19.47 19.47 0 0 1-9.936-2.717l-.708-.423-7.375 1.934 1.966-7.2-.465-.74a19.543 19.543 0 1 1 36.247-10.37 19.723 19.723 0 0 1-19.725 19.515zm10.7-14.609c-.581-.3-3.467-1.712-4.006-1.9s-.93-.3-1.321.3-1.512 1.9-1.86 2.3-.687.444-1.268.148C22.463 29.755 20.2 28.4 17.928 24.5c-.6-1.036.6-.962 1.723-3.2a1.087 1.087 0 0 0-.053-1.025c-.148-.3-1.321-3.182-1.808-4.355-.476-1.142-.962-.983-1.321-1-.338-.021-.729-.021-1.121-.021a2.172 2.172 0 0 0-1.564.729 6.589 6.589 0 0 0-2.051 4.894c0 2.886 2.1 5.676 2.389 6.068s4.133 6.311 10.021 8.858c3.721 1.607 5.18 1.744 7.04 1.469 1.131-.169 3.467-1.416 3.953-2.791a4.9 4.9 0 0 0 .338-2.791c-.136-.269-.527-.417-1.109-.703z" transform="translate(0 -2.25)"/>
</svg>
