<svg xmlns="http://www.w3.org/2000/svg" width="20" height="19.999" viewBox="0 0 20 19.999">
    <path fill="#888" d="M10.585.563a9.662 9.662 0 0 0-10.022 9.7 9.48 9.48 0 0 0 3.147 7.175c.337.3.267.478.325 2.348a.8.8 0 0 0 1.124.708c2.133-.94 2.161-1.014 2.523-.915 6.181 1.7 12.881-2.254 12.881-9.316a9.624 9.624 0 0 0-9.978-9.7zM16.6 8.027l-2.944 4.66a1.507 1.507 0 0 1-2.174.4l-2.339-1.752a.6.6 0 0 0-.726 0l-3.16 2.4a.475.475 0 0 1-.69-.632L7.511 8.44a1.506 1.506 0 0 1 2.174-.4l2.341 1.752a.6.6 0 0 0 .726 0L15.913 7.4a.474.474 0 0 1 .689.63z" transform="translate(-.563 -.563)"/>
</svg>
