<svg xmlns="http://www.w3.org/2000/svg" width="20.979" height="21.036" viewBox="0 0 20.979 21.036">
    <path fill="#888" d="M10.6 16.543c-3.526 0-5.1-1.735-5.1-3.036a1.108 1.108 0 0 1 1.168-1.136c1.51 0 1.116 2.171 3.933 2.171 1.438 0 2.235-.784 2.235-1.587 0-.483-.236-1.017-1.187-1.253l-3.134-.784c-2.524-.635-2.983-2-2.983-3.288 0-2.671 2.508-3.673 4.864-3.673 2.166 0 4.727 1.2 4.727 2.8a1.154 1.154 0 0 1-1.274 1.087c-1.288 0-1.05-1.785-3.65-1.785-1.288 0-2.009.582-2.009 1.417s1.011 1.1 1.891 1.3l2.309.524c2.534.569 3.176 2.056 3.176 3.457 0 2.17-1.667 3.79-5.015 3.79m9.715-4.279l-.025.118-.039-.21c.013.039.039.065.052.105a10.286 10.286 0 0 0 .159-1.8A9.925 9.925 0 0 0 17.5 3.453a10.064 10.064 0 0 0-3.151-2.126 8.772 8.772 0 0 0-3.795-.815 10.023 10.023 0 0 0-1.878.179l.1.053-.206-.03.1-.022a5.878 5.878 0 0 0-7.882 8.05l.018-.109.036.209-.053-.1a9.845 9.845 0 0 0-.151 1.714 10 10 0 0 0 .775 3.871A9.579 9.579 0 0 0 3.54 17.49a9.927 9.927 0 0 0 3.151 2.14 9.794 9.794 0 0 0 5.593.63l-.1-.054.21.04-.118.026a5.867 5.867 0 0 0 8.755-5.12 5.935 5.935 0 0 0-.748-2.863" transform="translate(-.048)"/>
</svg>
