<svg xmlns="http://www.w3.org/2000/svg" width="20.979" height="14.162" viewBox="0 0 20.979 14.162">
    <path fill="#888" d="M.072 16.975V5.322q0-.02.061-.384L6.991 10.8.153 17.38a1.715 1.715 0 0 1-.081-.4zm.91-12.846a.872.872 0 0 1 .344-.061H19.8a1.146 1.146 0 0 1 .364.061l-6.879 5.887-.91.728-1.8 1.477-1.8-1.477-.91-.728zM1 18.169l6.9-6.616 2.67 2.165 2.67-2.165 6.9 6.616a.971.971 0 0 1-.344.061H1.326A.916.916 0 0 1 1 18.169zM14.153 10.8l6.838-5.867a1.208 1.208 0 0 1 .061.384v11.658a1.551 1.551 0 0 1-.061.4z" transform="translate(-.072 -4.068)"/>
</svg>
