<svg xmlns="http://www.w3.org/2000/svg" width="20.252" height="20.252" viewBox="0 0 20.252 20.252">
    <g>
        <path fill="#039be5" d="M15.126 5a10.126 10.126 0 1 0 10.126 10.126A10.126 10.126 0 0 0 15.126 5z" transform="translate(-5 -5)"/>
        <path fill="#fff" d="M21.848 21.454h2.621l.411-2.662h-3.033v-1.456c0-1.106.361-2.087 1.4-2.087h1.662v-2.322a14.12 14.12 0 0 0-2.077-.126c-2.437 0-3.866 1.287-3.866 4.219v1.771h-2.509v2.662h2.505v7.317a9.182 9.182 0 0 0 2.885.022z" transform="translate(-10.351 -8.643)"/>
    </g>
</svg>
