<svg xmlns="http://www.w3.org/2000/svg" width="21" height="22" viewBox="0 0 21 22">
    <path fill="#888" d="M10.861 0c-1.775.024-5.594.314-7.73 2.26C1.546 3.829.992 6.14.927 9S.807 17.206 6 18.664v2.218s-.035.889.555 1.073c.728.229 1.143-.457 1.835-1.191l1.291-1.448a20.135 20.135 0 0 0 6.583-.485c.719-.229 4.777-.743 5.441-6.1.682-5.528-.332-9.012-2.157-10.588h-.009c-.553-.5-2.766-2.108-7.717-2.127 0 0-.365-.023-.957-.015zm.062 1.556c.5 0 .811.018.811.018 4.186.009 6.187 1.265 6.658 1.687 1.54 1.31 2.331 4.451 1.752 9.068-.553 4.473-3.845 4.758-4.453 4.95a18.747 18.747 0 0 1-5.672.477s-2.249 2.7-2.949 3.393a.367.367 0 0 1-.323.138c-.12-.028-.157-.174-.148-.376l.018-3.684c-4.4-1.21-4.141-5.777-4.094-8.16s.507-4.338 1.844-5.658c1.8-1.623 5.048-1.843 6.555-1.852zm.332 2.383a.276.276 0 0 0-.2.08.274.274 0 0 0 .2.469 5.208 5.208 0 0 1 3.716 1.458 5.311 5.311 0 0 1 1.513 3.978.276.276 0 0 0 .277.275v-.008a.276.276 0 0 0 .277-.275 5.894 5.894 0 0 0-1.669-4.363 5.712 5.712 0 0 0-4.114-1.613zm-3.645.634a.885.885 0 0 0-.567.11h-.011a4.369 4.369 0 0 0-1.058.862 1.7 1.7 0 0 0-.425.87 1.13 1.13 0 0 0 .046.5l.018.009A12.545 12.545 0 0 0 6.719 9.3a14.105 14.105 0 0 0 2.139 2.91l.028.037.037.027.028.028.028.028a14.382 14.382 0 0 0 2.932 2.136 13.5 13.5 0 0 0 2.4 1.1v.009a1.321 1.321 0 0 0 .367.055 1.7 1.7 0 0 0 1.016-.433 4.144 4.144 0 0 0 .857-1.052v-.009a.778.778 0 0 0-.166-1.028A12.567 12.567 0 0 0 14.4 11.7a.9.9 0 0 0-1.143.156l-.415.522a.756.756 0 0 1-.6.22l-.011.009a5.39 5.39 0 0 1-3.64-3.634.725.725 0 0 1 .23-.6l.516-.413a.907.907 0 0 0 .157-1.146 12.4 12.4 0 0 0-1.42-1.971.778.778 0 0 0-.465-.275zm4.124.816a.275.275 0 1 0 0 .55 3.5 3.5 0 0 1 2.443 1.054 3.2 3.2 0 0 1 .83 2.356.276.276 0 0 0 .277.274l.009.011a.277.277 0 0 0 .2-.081.274.274 0 0 0 .081-.2 3.769 3.769 0 0 0-.987-2.741 4.031 4.031 0 0 0-2.812-1.228h-.039zm.452 1.484a.28.28 0 1 0-.017.56 1.33 1.33 0 0 1 1.411 1.448.276.276 0 0 0 .277.266h.009a.277.277 0 0 0 .2-.09.274.274 0 0 0 .071-.2A1.879 1.879 0 0 0 12.2 6.873h-.011z" transform="translate(-.916)"/>
</svg>
