<svg xmlns="http://www.w3.org/2000/svg" width="124.679" height="63.136" viewBox="0 0 124.679 63.136">
    <defs>
        <style>
            .cls-1{fill:#fff}.cls-2{fill:#00b67a}
        </style>
    </defs>
    <g id="Group_4247">
        <g id="Group_45">
            <g id="trustpilot-1">
                <path id="Path_12" d="M.021 0h12.613v2.348H7.668v13.237H4.946V2.348H0zm12.073 4.3h2.327v2.183h.042a2.741 2.741 0 0 1 .437-.893 3.453 3.453 0 0 1 .769-.79 3.4 3.4 0 0 1 1-.582 2.9 2.9 0 0 1 1.1-.229c.291 0 .5.021.6.021a1.816 1.816 0 0 0 .332.042v2.39a4.2 4.2 0 0 0-.54-.083 4.73 4.73 0 0 0-.54-.042 2.884 2.884 0 0 0-1.184.249 3 3 0 0 0-.977.727A3.941 3.941 0 0 0 14.8 8.5a5.085 5.085 0 0 0-.249 1.662v5.361h-2.499zm18.037 11.285h-2.452v-1.579h-.042a3.481 3.481 0 0 1-1.371 1.372 3.62 3.62 0 0 1-1.849.52A4.115 4.115 0 0 1 21.2 14.8a4.818 4.818 0 0 1-1-3.325V4.3h2.494v6.92a2.949 2.949 0 0 0 .582 2.1 2.052 2.052 0 0 0 1.6.623 3.065 3.065 0 0 0 1.309-.249 2.258 2.258 0 0 0 .852-.644 2.528 2.528 0 0 0 .478-.977 4.614 4.614 0 0 0 .145-1.226V4.3h2.494v11.285zm4.239-3.616a1.961 1.961 0 0 0 .831 1.538 3.272 3.272 0 0 0 1.725.436 5.708 5.708 0 0 0 .79-.062 3.48 3.48 0 0 0 .831-.208 1.462 1.462 0 0 0 .644-.457 1.064 1.064 0 0 0 .229-.769 1.118 1.118 0 0 0-.353-.79 2.942 2.942 0 0 0-.831-.5 7.2 7.2 0 0 0-1.164-.312c-.436-.083-.873-.187-1.33-.291s-.914-.229-1.351-.374a3.87 3.87 0 0 1-1.164-.6 2.591 2.591 0 0 1-.81-.956A2.987 2.987 0 0 1 32.1 7.19a2.457 2.457 0 0 1 .457-1.538 3.315 3.315 0 0 1 1.143-1 5.189 5.189 0 0 1 1.538-.54 8.806 8.806 0 0 1 1.6-.145 7.152 7.152 0 0 1 1.662.187 4.2 4.2 0 0 1 1.434.6A3.293 3.293 0 0 1 41 5.839a3.743 3.743 0 0 1 .54 1.6h-2.6a1.6 1.6 0 0 0-.81-1.205 3.347 3.347 0 0 0-1.475-.312c-.166 0-.395.021-.623.042a3.674 3.674 0 0 0-.686.166 1.626 1.626 0 0 0-.54.353.831.831 0 0 0-.229.6.914.914 0 0 0 .312.727 2.825 2.825 0 0 0 .831.478 7.206 7.206 0 0 0 1.164.312c.436.083.894.187 1.351.291s.894.229 1.33.374a3.639 3.639 0 0 1 1.164.6 3 3 0 0 1 .831.935 2.873 2.873 0 0 1 .312 1.392 3.029 3.029 0 0 1-.457 1.7 3.885 3.885 0 0 1-1.184 1.143 5.876 5.876 0 0 1-1.621.644 8.706 8.706 0 0 1-1.766.208 7.442 7.442 0 0 1-1.974-.249 5.027 5.027 0 0 1-1.579-.727 3.489 3.489 0 0 1-1.039-1.226 4 4 0 0 1-.416-1.745h2.514v.021zM42.578 4.3h1.891V.894h2.494v3.387h2.244V6.13h-2.245v6.026a6.407 6.407 0 0 0 .042.686 1.441 1.441 0 0 0 .145.478.812.812 0 0 0 .353.291 1.853 1.853 0 0 0 .665.1 4.34 4.34 0 0 0 .519-.021 4.483 4.483 0 0 0 .519-.083v1.932c-.27.042-.54.062-.81.083a5.16 5.16 0 0 1-.81.042 5.373 5.373 0 0 1-1.579-.187 2.269 2.269 0 0 1-.935-.54 1.931 1.931 0 0 1-.457-.894 7.089 7.089 0 0 1-.145-1.247V6.151h-1.891V4.3zm8.374 0H53.3v1.539h.042A3.087 3.087 0 0 1 54.8 4.426a4.711 4.711 0 0 1 2.036-.436 5.12 5.12 0 0 1 2.327.478A4.366 4.366 0 0 1 60.8 5.756a5.374 5.374 0 0 1 .977 1.912 8.4 8.4 0 0 1 .042 4.53 6.114 6.114 0 0 1-.894 1.891 4.421 4.421 0 0 1-1.516 1.311 4.485 4.485 0 0 1-2.161.5 6.342 6.342 0 0 1-1.081-.1 4.6 4.6 0 0 1-1.039-.312 3.73 3.73 0 0 1-.914-.561 3.166 3.166 0 0 1-.706-.79h-.042v5.631h-2.493V4.3zm8.707 5.652a5.064 5.064 0 0 0-.208-1.475 3.764 3.764 0 0 0-.6-1.268 3.324 3.324 0 0 0-.977-.894 2.658 2.658 0 0 0-1.351-.332 2.76 2.76 0 0 0-2.369 1.081 4.922 4.922 0 0 0-.79 2.909 5.383 5.383 0 0 0 .208 1.579 3.518 3.518 0 0 0 .623 1.247 2.97 2.97 0 0 0 1 .831 2.818 2.818 0 0 0 1.351.312 2.765 2.765 0 0 0 1.434-.353 3.349 3.349 0 0 0 .977-.894 3.657 3.657 0 0 0 .54-1.268 7.137 7.137 0 0 0 .162-1.474zM64.043 0h2.494v2.348h-2.494zm0 4.3h2.494v11.285h-2.494zM68.76 0h2.494v15.585H68.76zm10.1 15.9a5.938 5.938 0 0 1-2.41-.457 5.471 5.471 0 0 1-1.787-1.226 5.339 5.339 0 0 1-1.1-1.891 7.388 7.388 0 0 1-.395-2.39 6.749 6.749 0 0 1 .395-2.369 5.527 5.527 0 0 1 1.1-1.891A4.982 4.982 0 0 1 76.45 4.45a6.307 6.307 0 0 1 2.41-.457 5.937 5.937 0 0 1 2.41.457 5.171 5.171 0 0 1 1.787 1.226 5.338 5.338 0 0 1 1.1 1.891 7.26 7.26 0 0 1 .395 2.369 6.786 6.786 0 0 1-.395 2.39 5.881 5.881 0 0 1-1.1 1.891 4.985 4.985 0 0 1-1.787 1.226 6.231 6.231 0 0 1-2.411.457zm0-1.974a2.874 2.874 0 0 0 1.434-.353 3.007 3.007 0 0 0 1-.914 3.916 3.916 0 0 0 .582-1.268 5.669 5.669 0 0 0 0-2.888 3.726 3.726 0 0 0-.582-1.268 3.156 3.156 0 0 0-1-.894 2.931 2.931 0 0 0-1.434-.353 2.874 2.874 0 0 0-1.434.353 3.182 3.182 0 0 0-1 .894 3.725 3.725 0 0 0-.58 1.265 5.669 5.669 0 0 0 0 2.888 3.726 3.726 0 0 0 .582 1.268 3.222 3.222 0 0 0 1 .914 2.721 2.721 0 0 0 1.431.353zM85.3 4.3h1.891V.894h2.494v3.387h2.245V6.13h-2.244v6.026a6.389 6.389 0 0 0 .042.686 1.438 1.438 0 0 0 .145.478.812.812 0 0 0 .353.291 1.853 1.853 0 0 0 .665.1 4.339 4.339 0 0 0 .519-.021 4.481 4.481 0 0 0 .519-.083v1.932c-.27.042-.54.062-.81.083a5.16 5.16 0 0 1-.81.042 5.373 5.373 0 0 1-1.579-.187 2.269 2.269 0 0 1-.935-.54 1.931 1.931 0 0 1-.457-.894 7.09 7.09 0 0 1-.145-1.247V6.151H85.3V4.3z" class="cls-1" transform="translate(32.749 10.847)"/>
                <path id="Path_13" d="M29.861 10.847H18.452L14.941 0l-3.533 10.847L0 10.826l9.226 6.712-3.532 10.847 9.226-6.712 9.226 6.712-3.512-10.847z" class="cls-2"/>
                <path id="Path_14" fill="#005128" d="M6.483 2.452L5.694 0 0 4.135z" transform="translate(14.941 17.538)"/>
            </g>
        </g>
        <g id="Group_558" transform="translate(.008 41.136)">
            <g id="Group_56">
                <g id="Group_37">
                    <path id="Rectangle_23" d="M0 0H22V22H0z" class="cls-2"/>
                    <g id="Group_36" transform="translate(3.383 3.776)">
                        <g id="Group_35">
                            <path id="Path_10" d="M35.686 254.016h-5.8L28.1 248.5l-1.8 5.516-5.8-.011 4.692 3.413-1.8 5.516 4.692-3.413 4.692 3.413-1.786-5.516z" class="cls-1" transform="translate(-20.5 -248.5)"/>
                            <path id="Path_11" fill="#00b67a" d="M95.7 334.148l-.4-1.248-2.9 2.1z" opacity="0.7" transform="translate(-84.802 -323.982)"/>
                        </g>
                    </g>
                </g>
                <g id="Group_38" transform="translate(24)">
                    <path id="Rectangle_23-2" d="M0 0H22V22H0z" class="cls-2"/>
                    <g id="Group_36-2" transform="translate(3.504 3.776)">
                        <g id="Group_35-2">
                            <path id="Path_10-2" d="M35.686 254.016h-5.8L28.1 248.5l-1.8 5.516-5.8-.011 4.692 3.413-1.8 5.516 4.692-3.413 4.692 3.413-1.786-5.516z" class="cls-1" transform="translate(-20.5 -248.5)"/>
                            <path id="Path_11-2" d="M95.7 334.148l-.4-1.248-2.9 2.1z" class="cls-2" transform="translate(-84.802 -323.982)"/>
                        </g>
                    </g>
                </g>
                <g id="Group_39" transform="translate(48)">
                    <path id="Rectangle_23-3" d="M0 0H22V22H0z" class="cls-2"/>
                    <g id="Group_36-3" transform="translate(3.627 3.776)">
                        <g id="Group_35-3">
                            <path id="Path_10-3" d="M35.686 254.016h-5.8L28.1 248.5l-1.8 5.516-5.8-.011 4.692 3.413-1.8 5.516 4.692-3.413 4.692 3.413-1.786-5.516z" class="cls-1" transform="translate(-20.5 -248.5)"/>
                            <path id="Path_11-3" d="M95.7 334.148l-.4-1.248-2.9 2.1z" class="cls-2" transform="translate(-84.802 -323.982)"/>
                        </g>
                    </g>
                </g>
                <g id="Group_40" transform="translate(72)">
                    <path id="Rectangle_23-4" d="M0 0H23V22H0z" class="cls-2"/>
                    <g id="Group_36-4" transform="translate(3.748 3.776)">
                        <g id="Group_35-4">
                            <path id="Path_10-4" d="M35.686 254.016h-5.8L28.1 248.5l-1.8 5.516-5.8-.011 4.692 3.413-1.8 5.516 4.692-3.413 4.692 3.413-1.786-5.516z" class="cls-1" transform="translate(-20.5 -248.5)"/>
                            <path id="Path_11-4" d="M95.7 334.148l-.4-1.248-2.9 2.1z" class="cls-2" transform="translate(-84.802 -323.982)"/>
                        </g>
                    </g>
                </g>
                <g id="Group_41" transform="translate(97)">
                    <path id="Rectangle_23-5" d="M0 0H22V22H0z" class="cls-2"/>
                    <g id="Group_36-5" transform="translate(2.869 3.776)">
                        <g id="Group_35-5">
                            <path id="Path_10-5" d="M35.686 254.016h-5.8L28.1 248.5l-1.8 5.516-5.8-.011 4.692 3.413-1.8 5.516 4.692-3.413 4.692 3.413-1.786-5.516z" class="cls-1" transform="translate(-20.5 -248.5)"/>
                            <path id="Path_11-5" d="M95.7 334.148l-.4-1.248-2.9 2.1z" class="cls-2" transform="translate(-84.802 -323.982)"/>
                        </g>
                    </g>
                </g>
            </g>
        </g>
    </g>
</svg>
