<svg xmlns="http://www.w3.org/2000/svg" width="12.77" height="13.793" viewBox="0 0 12.77 13.793">
    <defs>
        <style>
            .cls-1{fill:#22c58b}
        </style>
    </defs>
    <g id="Group_3601" transform="translate(-577.005 -1357.999)">
        <path id="Path_2495" d="M29.969 2.972a6.348 6.348 0 0 0-3.68-1.883l.4-.4a.4.4 0 0 0-.574-.569l-1.023 1.023a.4.4 0 0 0 0 .571l1.023 1.023a.4.4 0 1 0 .571-.571l-.229-.229a5.573 5.573 0 1 1-2.956.218.4.4 0 1 0-.272-.761 6.387 6.387 0 1 0 6.738 1.577z" class="cls-1" transform="translate(558.012 1357.998)"/>
        <path id="Path_2496" d="M101.884 125.029a4.152 4.152 0 1 0 4.152-4.152 4.156 4.156 0 0 0-4.152 4.152zm4.4.36a4.046 4.046 0 0 1-1.163-.559 1.081 1.081 0 0 1-.36-1.064 1.209 1.209 0 0 1 .829-.947h.018v-.163a.4.4 0 1 1 .808 0v.137a1.543 1.543 0 0 1 .559.255.4.4 0 1 1-.484.647.737.737 0 0 0-.667-.1.409.409 0 0 0-.268.323.294.294 0 0 0 .064.278 3.686 3.686 0 0 0 .934.433 1.278 1.278 0 0 1 .869 1.447 1.454 1.454 0 0 1-.448.826 1.389 1.389 0 0 1-.558.314v.193a.4.4 0 0 1-.808 0v-.154a1.723 1.723 0 0 1-.795-.312.4.4 0 1 1 .442-.676 1.039 1.039 0 0 0 .754.2.62.62 0 0 0 .615-.523.47.47 0 0 0-.341-.555z" class="cls-1" transform="translate(477.354 1240.379)"/>
    </g>
</svg>
