<svg xmlns="http://www.w3.org/2000/svg" width="13.095" height="13.093" viewBox="0 0 13.095 13.093">
    <defs>
        <style>
            .cls-1{fill:#525257}
        </style>
    </defs>
    <g id="Group_3600" transform="translate(-577.004 -1275)">
        <path id="Path_2499" d="M63.29 67.839l4.55-4.55-.542-.542-.455.455-.548-.548a2.431 2.431 0 0 0-2.4-.615l-.561.164.164-.561a2.431 2.431 0 0 0-.615-2.4l-.548-.548.455-.455-.542-.542-4.55 4.55.542.542.455-.455.548.548a2.431 2.431 0 0 0 2.4.615l.561-.164-.164.561a2.431 2.431 0 0 0 .615 2.4l.548.548-.455.455zm.612-2.553l.311-1.064 1.064-.311a1.773 1.773 0 0 1 .886-.029l-2.283 2.282a1.723 1.723 0 0 1 .02-.878zm-2.474-2.527a1.664 1.664 0 0 1-1.644-.421l-.548-.548 2.556-2.556.548.548a1.664 1.664 0 0 1 .421 1.644l-.3 1.031zm1.348 1.348l.3-1.031 1.031-.3a1.664 1.664 0 0 1 1.512.3 2.552 2.552 0 0 0-.559.1l-1.467.429-.429 1.467a2.475 2.475 0 0 0-.094.54 1.664 1.664 0 0 1-.294-1.505z" class="cls-1" transform="translate(520.785 1218.779)"/>
        <path id="Path_2500" d="M.854 5.591a5.782 5.782 0 0 1 8.837-3.858 1.161 1.161 0 1 0 .477-.6A6.548 6.548 0 0 0 .583 9.285l.7-.316a5.769 5.769 0 0 1-.429-3.378zm9.927-3.907a.425.425 0 1 1-.425.425.425.425 0 0 1 .425-.425z" class="cls-1" transform="translate(577.004 1274.963)"/>
        <path id="Path_2501" d="M54.873 154.015l-.7.305a5.781 5.781 0 0 1-4.907 8.069q-.2.014-.4.013a5.778 5.778 0 0 1-3.183-.954 1.16 1.16 0 1 0-.483.6 6.543 6.543 0 0 0 3.666 1.121q.223 0 .447-.015a6.549 6.549 0 0 0 5.559-9.14zm-10.283 7.473a.425.425 0 1 1 .425-.425.425.425 0 0 1-.425.425z" class="cls-1" transform="translate(534.686 1124.924)"/>
    </g>
</svg>
