<svg xmlns="http://www.w3.org/2000/svg" width="11.704" height="11.707" viewBox="0 0 11.704 11.707">
    <path d="M16.2 9.691c0 2.258-1.058 3.682-2.731 3.682a1.507 1.507 0 0 1-1.621-1.137h-.118a1.785 1.785 0 0 1-1.759 1.094c-1.487 0-2.481-1.192-2.481-2.966 0-1.7 1-2.889 2.46-2.889a1.773 1.773 0 0 1 1.667 1h.122v-.851h1.216v3.941a.705.705 0 0 0 .759.786c.844 0 1.381-1.024 1.381-2.615 0-2.539-1.9-4.237-4.712-4.237a4.641 4.641 0 0 0-4.761 4.895c0 2.932 1.96 4.8 5.011 4.8a9.251 9.251 0 0 0 1.658-.14.482.482 0 0 1 .573.472.483.483 0 0 1-.369.469 8.517 8.517 0 0 1-1.911.207c-3.709 0-6.084-2.3-6.084-5.852a5.623 5.623 0 0 1 5.956-5.85c3.395 0 5.744 2.118 5.744 5.191zm-7.4.7c0 1.128.53 1.81 1.393 1.81.908 0 1.481-.7 1.481-1.81S11.1 8.6 10.212 8.6 8.8 9.261 8.8 10.392z" opacity="0.3" transform="translate(-4.5 -4.5)"/>
</svg>
