<svg xmlns="http://www.w3.org/2000/svg" width="9.803" height="12.867" viewBox="0 0 9.803 12.867">
    <path d="M10.9 11.3a1.225 1.225 0 1 0-1.225-1.225A1.229 1.229 0 0 0 10.9 11.3zm3.676-5.514h-.613V4.563a3.063 3.063 0 0 0-6.127 0v1.226h-.611A1.229 1.229 0 0 0 6 7.014v6.127a1.229 1.229 0 0 0 1.225 1.225h7.352a1.229 1.229 0 0 0 1.223-1.225V7.014a1.229 1.229 0 0 0-1.222-1.225zM9 4.563a1.9 1.9 0 0 1 3.8 0v1.226H9zm5.576 8.578H7.225V7.014h7.352z" opacity="0.3" transform="translate(-6 -1.5)"/>
</svg>
