<svg xmlns="http://www.w3.org/2000/svg" width="80" height="41" viewBox="0 0 80 41">
    <defs>
        <style>
            .cls-3,.cls-4{fill:#0b41be}.cls-3{fill-rule:evenodd}
        </style>
    </defs>
    <g id="Group_4243" transform="translate(-91 -144)">
        <path id="Rectangle_124" fill="#fff" d="M0 0H80V41H0z" transform="translate(91 144)"/>
        <g id="PayOp" transform="translate(105.41 157.148)">
            <path id="Path_114" fill="#00b3ff" d="M59.85 6.713c.034-.322.078-.622.1-.922a4.442 4.442 0 0 0-.134-1.361 2.928 2.928 0 0 0-.723-1.33 2.729 2.729 0 0 0-1.616-.835A3.666 3.666 0 0 0 54.144 3.5a6.953 6.953 0 0 0-1.535 3.03 6.828 6.828 0 0 0-.159 1.126 5.3 5.3 0 0 0 0 .863 3.217 3.217 0 0 0 .735 1.791 2.469 2.469 0 0 0 1.935.872 3.368 3.368 0 0 0 1.9-.6 7.716 7.716 0 0 0 1.2-.944c.669-.625 1.285-1.3 1.895-1.983.278-.312.563-.616.844-.928.463-.51.932-1.012 1.382-1.531a4.678 4.678 0 0 1 2.092-1.408 3.757 3.757 0 0 1 .966-.161 3.536 3.536 0 0 1 1.285.142 2.937 2.937 0 0 1 1.885 1.717 4.572 4.572 0 0 1 .356 1.643c.009.217.038.436.031.653a6.577 6.577 0 0 1-.716 2.995 5.7 5.7 0 0 1-1.638 1.952 3.953 3.953 0 0 1-1.895.767 4.17 4.17 0 0 1-1.566-.093 2.891 2.891 0 0 1-1.307-.727c-.091-.087-.178-.176-.3-.291l-1 4.734h-2.57l.172-.832c.166-.8.335-1.6.5-2.4a.69.69 0 0 1 .175-.35c.547-.585 1.085-1.179 1.623-1.77.519-.569 1.038-1.142 1.576-1.733.025.059.047.105.066.155a2.292 2.292 0 0 0 .753 1.08 1.642 1.642 0 0 0 1.735.179 2.367 2.367 0 0 0 1.169-1.132 6.317 6.317 0 0 0 .678-2.125 3.436 3.436 0 0 0-.072-1.4.958.958 0 0 0-.782-.631 1.858 1.858 0 0 0-1.076.288 6.33 6.33 0 0 0-1.116.848A14.753 14.753 0 0 0 61.76 9.1c-.525.678-1.047 1.355-1.594 2.014a10.388 10.388 0 0 1-1.294 1.349 3.353 3.353 0 0 1-1.007.588 6.751 6.751 0 0 1-1.97.436c-.363.019-.725.046-1.088.031a5.2 5.2 0 0 1-3.289-1.231 4.785 4.785 0 0 1-1.485-2.373 6.168 6.168 0 0 1-.256-1.983 9.859 9.859 0 0 1 .291-1.98 9.869 9.869 0 0 1 .732-2.045 7.15 7.15 0 0 1 1.607-2.147A6.615 6.615 0 0 1 55.566.16a10.429 10.429 0 0 1 1.12-.14A6.138 6.138 0 0 1 57.9.045 5.158 5.158 0 0 1 60.766 1.2 5 5 0 0 1 62.4 3.746a.215.215 0 0 1-.053.229q-.633.687-1.263 1.38c-.363.4-.722.8-1.085 1.194a.706.706 0 0 1-.149.164z" transform="translate(-15.012)"/>
            <path id="Path_115" d="M4.554 0H4.3L2.169 10.14l-.682 3.247a.2.2 0 0 0 0 .041v.022a.1.1 0 0 1 0 .011.047.047 0 0 0 0 .011l.008.006.015.01h2.731q.25-1.16.493-2.316l.6-2.816h.287l1.189-.013c.59-.008 1.19-.015 1.78-.019a8.357 8.357 0 0 0 1.666-.185 4.541 4.541 0 0 0 1.758-.726 4.394 4.394 0 0 0 1.407-1.746 5.107 5.107 0 0 0 .463-2.947A2.95 2.95 0 0 0 11.462.161 9.2 9.2 0 0 0 9.6.005C8.4 0 7.2 0 6 0zm1.5 6.13h-.278l.309-1.466.514-2.437h.09c.048 0 .093-.005.137-.005h2.007c.383.006.769.035 1.152.073a1.267 1.267 0 0 1 1.174 1.529A2.388 2.388 0 0 1 9.1 5.966c-.424.064-.852.105-1.28.127-.394.019-.786.024-1.179.029l-.584.01z" class="cls-3" transform="translate(-.448)"/>
            <path id="Path_116" d="M20.892 6.782a3.577 3.577 0 0 0-.547 1.084c.742.066 1.469.128 2.19.188l.242.02.015-.035c.026-.059.047-.106.067-.155a1.331 1.331 0 0 1 .908-.8 2.376 2.376 0 0 1 1-.049 1.5 1.5 0 0 1 .507.181.816.816 0 0 1 .425.725 2.788 2.788 0 0 1-.11.743.221.221 0 0 1-.193.187c-.106.019-.211.041-.316.063-.181.038-.362.076-.546.1-.434.054-.87.1-1.306.144l-.643.068a6.3 6.3 0 0 0-1.461.335 2.555 2.555 0 0 0-1.687 1.806 3.4 3.4 0 0 0-.067 1.5 2.494 2.494 0 0 0 1.286 1.84 2.808 2.808 0 0 0 2.029.252 3.678 3.678 0 0 0 1.864-1.023l.073-.072.108-.106c.016.1.029.2.042.29a3.267 3.267 0 0 0 .16.748 22.44 22.44 0 0 0 2.426-.018l-.015-.063-.019-.079a4.488 4.488 0 0 1-.076-2.015c.076-.4.158-.8.24-1.2.066-.321.132-.642.194-.962.045-.234.1-.466.147-.7a11.868 11.868 0 0 0 .3-1.86 2.28 2.28 0 0 0-.278-1.315A2.621 2.621 0 0 0 26.2 5.381a5.645 5.645 0 0 0-1.491-.181 6.791 6.791 0 0 0-1.555.141 3.767 3.767 0 0 0-2.262 1.441zm4.053 3.718l.256-.042-.019.117c-.01.067-.019.124-.033.178l-.077.294c-.065.254-.131.508-.217.754a2 2 0 0 1-1.62 1.318 1.553 1.553 0 0 1-.7 0 .992.992 0 0 1-.807-.786 1.017 1.017 0 0 1 .422-1.124 2.667 2.667 0 0 1 .862-.362 12.607 12.607 0 0 1 1.553-.285l.066-.009.314-.053z" class="cls-3" transform="translate(-5.825 -1.568)"/>
            <path id="Path_117" d="M.437 22.579L0 24.656l23.251-1.04 1.133-2.073z" class="cls-4" transform="translate(0 -6.498)"/>
            <path id="Path_118" d="M44.346 5.2H42.06a.291.291 0 0 0-.294.178q-.951 1.8-1.914 3.6a24.009 24.009 0 0 0-1.574 3.432.58.58 0 0 1-.065.1c-.08-1.242-.257-2.447-.418-3.655s-.327-2.425-.495-3.636h-2.516a.572.572 0 0 0-.006.094c.145.848.294 1.7.439 2.547.133.779.269 1.558.4 2.337l.445 2.591.322 1.9-2.214 4.005h2.6s3.69-6.1 4.614-7.769l3.09-5.557a1.439 1.439 0 0 0 .068-.15c-.072-.008-.134-.017-.196-.017z" class="cls-4" transform="translate(-10.307 -1.568)"/>
        </g>
    </g>
</svg>
