<svg xmlns="http://www.w3.org/2000/svg" width="24.09" height="24" viewBox="0 0 24.09 24">
    <defs>
        <style>
            .cls-2{fill:none;stroke:#707070;stroke-linecap:round;stroke-width:1.5px}
        </style>
    </defs>
    <g id="Group_1573">
        <g id="Path_2268" fill="#fff" stroke="none">
            <path d="M12.045 23.5c-3.084 0-5.984-1.196-8.164-3.369C1.7 17.96.5 15.071.5 12c0-3.071 1.2-5.96 3.38-8.131C6.062 1.696 8.96.5 12.046.5c3.084 0 5.983 1.196 8.164 3.369 2.18 2.172 3.38 5.06 3.38 8.131 0 3.071-1.2 5.96-3.38 8.131-2.18 2.173-5.08 3.369-8.164 3.369z"/>
            <path fill="#707070" d="M12.045 1C9.094 1 6.32 2.145 4.234 4.223 2.148 6.301 1 9.063 1 12c0 2.938 1.148 5.7 3.234 7.777C6.32 21.855 9.094 23 12.044 23c2.952 0 5.726-1.145 7.812-3.223 2.085-2.078 3.234-4.84 3.234-7.777 0-2.938-1.149-5.7-3.234-7.777C17.77 2.145 14.996 1 12.045 1m0-1C18.697 0 24.09 5.373 24.09 12s-5.393 12-12.045 12S0 18.627 0 12 5.393 0 12.045 0z"/>
        </g>
        <g id="Group_1573-2" transform="translate(6.84 6.795)">
            <path id="Line_44" d="M0 7.361L7.361 0" class="cls-2" transform="rotate(-45 6.283 2.603)"/>
            <path id="Line_43" d="M7.361 7.361L0 0" class="cls-2" transform="rotate(-45 6.283 2.603)"/>
        </g>
    </g>
</svg>
