<svg xmlns="http://www.w3.org/2000/svg" id="Grupo_8" width="141.482" height="42.505" viewBox="0 0 141.482 42.505">
    <defs>
        <clipPath id="clip-path">
            <path id="Caminho_21" d="M606.922 191.2c-7.03 0-13.116 2.888-15.582 3.791v4.093c0 11.375.043 19.23 6.66 25.844a81.788 81.788 0 0 0 8.749 6.725 80.546 80.546 0 0 0 8.8-6.725c6.629-6.629 6.608-13.591 6.608-24.325v-5.661c-3.083-.953-8.615-3.742-15.235-3.742z" class="cls-1" transform="translate(-591.34 -191.2)"/>
        </clipPath>
        <clipPath id="clip-path-2">
            <path id="Caminho_24" d="M628.5 389.015a16.242 16.242 0 0 0 2.218 4.426 50.1 50.1 0 0 0 4.654 5.011 52.9 52.9 0 0 0 4.573-5.011 16 16 0 0 0 2.252-4.609c1.297-3.252-14.997-2.45-13.697.183z" class="cls-1" transform="translate(-628.424 -386.701)"/>
        </clipPath>
        <linearGradient id="linear-gradient" x1=".5" x2=".5" y1="-.157" y2=".669" gradientUnits="objectBoundingBox">
            <stop offset="0" stop-color="#263238" stop-opacity=".349"/>
            <stop offset=".42" stop-color="#263238" stop-opacity=".149"/>
            <stop offset=".89" stop-color="#263238" stop-opacity=".02"/>
            <stop offset="1" stop-color="#263238" stop-opacity="0"/>
        </linearGradient>
        <style>
            .cls-1{fill:none}.cls-2{fill:#7b7979}.cls-9{fill:#fafafa}.cls-11{fill:#fff}
        </style>
    </defs>
    <g id="Grupo_7">
        <g id="Grupo_6">
            <g id="Grupo_3" transform="translate(39.353 4.057)">
                <g id="Grupo_2">
                    <g id="Google_2015_logo">
                        <path id="Caminho_12" d="M80.423 29.572A4.587 4.587 0 1 1 75.837 25a4.515 4.515 0 0 1 4.586 4.572zm-2.008 0a2.585 2.585 0 1 0-2.578 2.77 2.633 2.633 0 0 0 2.578-2.77z" class="cls-2" transform="translate(-56.637 -19.943)"/>
                        <path id="Caminho_13" d="M128.424 29.572A4.587 4.587 0 1 1 123.838 25a4.515 4.515 0 0 1 4.586 4.572zm-2.008 0a2.585 2.585 0 1 0-2.579 2.77 2.633 2.633 0 0 0 2.579-2.77z" class="cls-2" transform="translate(-94.743 -19.943)"/>
                        <path id="Caminho_14" d="M175.994 25.276v8.208c0 3.376-1.991 4.756-4.345 4.756a4.354 4.354 0 0 1-4.053-2.694l1.748-.728a2.526 2.526 0 0 0 2.3 1.622c1.507 0 2.441-.93 2.441-2.68v-.66h-.07a3.113 3.113 0 0 1-2.408 1.039 4.575 4.575 0 0 1 0-9.142 3.168 3.168 0 0 1 2.408 1.022h.07v-.744h1.907zm-1.765 4.312a2.576 2.576 0 0 0-2.441-2.787 2.78 2.78 0 0 0 0 5.541 2.555 2.555 0 0 0 2.441-2.754z" class="cls-2" transform="translate(-132.831 -19.943)"/>
                        <path id="Caminho_15" d="M217.458 3v13.4H215.5V3z" class="cls-2" transform="translate(-171.152 -2.478)"/>
                        <path id="Caminho_16" d="M235.879 31.069l1.558 1.039a4.551 4.551 0 0 1-3.809 2.026 4.474 4.474 0 0 1-4.537-4.572 4.345 4.345 0 0 1 4.309-4.572 4.246 4.246 0 0 1 3.912 2.909l.208.52-6.112 2.531a2.327 2.327 0 0 0 2.216 1.385 2.61 2.61 0 0 0 2.255-1.266zm-4.8-1.645l4.085-1.7a1.77 1.77 0 0 0-1.7-.969 2.508 2.508 0 0 0-2.382 2.669z" class="cls-2" transform="translate(-181.941 -19.936)"/>
                        <path id="Caminho_17" d="M7.56 8.909V6.97h6.54a6.427 6.427 0 0 1 .1 1.171 6.406 6.406 0 0 1-1.68 4.537 6.494 6.494 0 0 1-4.951 1.991 7.2 7.2 0 0 1-7.2-7.1 7.2 7.2 0 0 1 7.2-7.1 6.765 6.765 0 0 1 4.865 1.956l-1.376 1.37A4.944 4.944 0 0 0 7.56 2.41a5.092 5.092 0 0 0-5.092 5.16 5.092 5.092 0 0 0 5.092 5.16 4.751 4.751 0 0 0 3.585-1.42 4.02 4.02 0 0 0 1.051-2.4z" class="cls-2" transform="translate(-.36 -.47)"/>
                    </g>
                    <path id="Caminho_18" fill="#707070" d="M9.236-57.967a5.291 5.291 0 0 1-3.651-1.095 3.823 3.823 0 0 1-1.272-2.812h1.473a2.393 2.393 0 0 0 1.075 1.91 4.171 4.171 0 0 0 2.312.619 3.642 3.642 0 0 0 2.067-.527 1.644 1.644 0 0 0 .784-1.433 1.459 1.459 0 0 0-.811-1.386 11.709 11.709 0 0 0-2.792-.855 6.447 6.447 0 0 1-2.843-1.17 2.506 2.506 0 0 1-.862-1.993 2.816 2.816 0 0 1 1.122-2.3 4.633 4.633 0 0 1 2.981-.9 5.088 5.088 0 0 1 3.15.909 3.207 3.207 0 0 1 1.268 2.56h-1.489q-.228-2.1-2.867-2.1a3.47 3.47 0 0 0-1.977.48 1.479 1.479 0 0 0-.7 1.276 1.207 1.207 0 0 0 .563 1.087 7.142 7.142 0 0 0 2.1.7 19.842 19.842 0 0 1 2.446.669 3.915 3.915 0 0 1 1.554 1.028 2.643 2.643 0 0 1 .646 1.871 3.083 3.083 0 0 1-1.185 2.473 4.679 4.679 0 0 1-3.092.989zm11.5-2.394v-1.851h-1.017q-3.229 0-3.229 1.756a1.138 1.138 0 0 0 .473.981 2.131 2.131 0 0 0 1.276.343 3.225 3.225 0 0 0 1.418-.331 2.721 2.721 0 0 0 1.078-.898zm0 1.339a4.119 4.119 0 0 1-2.922 1.055 3.079 3.079 0 0 1-2.048-.673 2.162 2.162 0 0 1-.8-1.737q0-2.93 5.049-2.93h.725a6.368 6.368 0 0 0-.095-1.3 1.082 1.082 0 0 0-.527-.673 2.711 2.711 0 0 0-1.378-.268q-1.985 0-2.048 1.418h-1.486q.165-2.576 3.607-2.576a4.268 4.268 0 0 1 2.5.638 2.9 2.9 0 0 1 .9 2.5v5.4h-1.478zm5.419-6.332v7.191h-1.482v-7.191h-1.229v-1.166h1.229v-.74q0-2.646 2.339-2.646a5.024 5.024 0 0 1 1.111.095v1.292a5.1 5.1 0 0 0-.9-.079 1.014 1.014 0 0 0-.807.3 1.614 1.614 0 0 0-.264 1.051v.724h1.583v1.166zm6.294 7.388a3.937 3.937 0 0 1-2.962-1.154 4.43 4.43 0 0 1-1.119-3.217 4.523 4.523 0 0 1 1.083-3.21 3.692 3.692 0 0 1 2.832-1.162 3.721 3.721 0 0 1 2.855 1.142 4.551 4.551 0 0 1 1.062 3.229v.354h-6.289a3.23 3.23 0 0 0 .8 2.15 2.367 2.367 0 0 0 1.737.7 2.567 2.567 0 0 0 1.406-.4 1.339 1.339 0 0 0 .658-1.13h1.536a2.771 2.771 0 0 1-1.17 1.993 4.115 4.115 0 0 1-2.431.704zm2.19-5.183a3.029 3.029 0 0 0-.811-1.8 2.157 2.157 0 0 0-1.544-.6 2.163 2.163 0 0 0-1.528.595 2.96 2.96 0 0 0-.811 1.808zm16.341 1.63a2.978 2.978 0 0 1-1.1 2.489 5.1 5.1 0 0 1-3.206.866h-4.327V-69.71h4.111a4.75 4.75 0 0 1 2.9.788 2.546 2.546 0 0 1 1.055 2.158 2.614 2.614 0 0 1-1.662 2.473 2.851 2.851 0 0 1 1.674 1.044 2.856 2.856 0 0 1 .555 1.729zm-7.1-3.355h2.568a3.381 3.381 0 0 0 1.866-.406 1.512 1.512 0 0 0 .6-1.351 1.488 1.488 0 0 0-.583-1.28 3.54 3.54 0 0 0-2.031-.429h-2.425zm0 5.34h2.78q2.741 0 2.741-1.985a1.764 1.764 0 0 0-.634-1.508 4.027 4.027 0 0 0-2.3-.477h-2.592zm13.374-5.632a3.327 3.327 0 0 0-.906-.095 2.334 2.334 0 0 0-1.948 1.19v5.907h-1.491v-8.356H54.4v1.166a2.654 2.654 0 0 1 2.174-1.355 3.965 3.965 0 0 1 .677.063zm4.419-1.544a3.721 3.721 0 0 1 2.855 1.142 4.551 4.551 0 0 1 1.067 3.229 4.554 4.554 0 0 1-1.067 3.225 3.714 3.714 0 0 1-2.855 1.146 3.7 3.7 0 0 1-2.847-1.146 4.554 4.554 0 0 1-1.067-3.225 4.551 4.551 0 0 1 1.067-3.229 3.712 3.712 0 0 1 2.847-1.142zm0 7.577a2.124 2.124 0 0 0 1.725-.807 3.716 3.716 0 0 0 .662-2.4 3.731 3.731 0 0 0-.662-2.406 2.124 2.124 0 0 0-1.725-.807 2.124 2.124 0 0 0-1.725.807 3.731 3.731 0 0 0-.662 2.406 3.716 3.716 0 0 0 .662 2.4 2.124 2.124 0 0 0 1.725.808zM77.72-66.52l-2.513 8.357h-1.418l-1.811-6.144-1.8 6.144h-1.422l-2.52-8.357h1.646l1.536 6.372L71.3-66.52h1.355l1.89 6.372 1.536-6.372zm4.167 8.554q-3.426 0-3.584-2.694h1.489q.016 1.528 2.079 1.528a2.231 2.231 0 0 0 1.406-.382 1.172 1.172 0 0 0 .484-.957.819.819 0 0 0-.473-.8 11.889 11.889 0 0 0-1.949-.6 7.18 7.18 0 0 1-2.158-.827 1.792 1.792 0 0 1-.681-1.607 2.118 2.118 0 0 1 .847-1.721 3.506 3.506 0 0 1 2.264-.681q3.284 0 3.355 2.339h-1.481q-.079-1.181-1.772-1.181a2.457 2.457 0 0 0-1.241.284.9.9 0 0 0-.492.827.75.75 0 0 0 .378.7 9.451 9.451 0 0 0 1.894.583 7.325 7.325 0 0 1 2.253.854 1.87 1.87 0 0 1 .736 1.686 2.356 2.356 0 0 1-.91 1.894 3.719 3.719 0 0 1-2.446.752zm6.569-.2h-1.49v-8.354h1.489zm0-9.94h-1.49v-1.604h1.489zm3.678 2.646a3.285 3.285 0 0 1 2.5-1.252q2.828 0 2.828 3.08v5.466h-1.493v-5.4a2.338 2.338 0 0 0-.369-1.474 1.466 1.466 0 0 0-1.2-.449 3.107 3.107 0 0 0-2.268 1.339v5.986h-1.487v-8.356h1.489zm14.256 6.648q0 4.033-3.639 4.033a4.042 4.042 0 0 1-2.485-.685 2.189 2.189 0 0 1-.91-1.843h1.536q0 1.37 1.843 1.37a2.165 2.165 0 0 0 1.607-.571 3.24 3.24 0 0 0 .567-2.241v-.417a3 3 0 0 1-2.386 1.2 3.014 3.014 0 0 1-2.536-1.166 5.028 5.028 0 0 1-.9-3.142 4.875 4.875 0 0 1 1-3.241 3.162 3.162 0 0 1 2.524-1.193 3.324 3.324 0 0 1 2.292.835v-.646h1.481zm-1.481-1.756v-3.97a2.95 2.95 0 0 0-2.2-1.016 1.768 1.768 0 0 0-1.524.823 4.319 4.319 0 0 0-.571 2.453 4.2 4.2 0 0 0 .539 2.343 1.705 1.705 0 0 0 1.493.8 2.827 2.827 0 0 0 2.26-1.433z" transform="translate(-4.26 89.249)"/>
                </g>
            </g>
            <g id="safebrowsing-logo">
                <path id="Caminho_19" fill="#66bb6a" d="M591.33 225.046v4.093c0 3.743 0 7.1.243 10.2.485 6.214 1.955 11.211 6.395 15.649a81.315 81.315 0 0 0 8.771 6.725v-36.667c-6.472 0-12.939-.903-15.409 0z" transform="translate(-591.33 -219.202)"/>
                <path id="Caminho_20" fill="#388e3c" d="M656.739 227.974c-15.351-.029-8.937 0-15.409 0v36.711a80.549 80.549 0 0 0 8.8-6.725c6.629-6.629 6.608-13.591 6.608-24.325z" transform="translate(-625.921 -222.183)"/>
                <g id="Grupo_4" clip-path="url(#clip-path)" transform="translate(.003 2.05)">
                    <path id="Retângulo_1" fill="url(#linear-gradient)" d="M0 0H33.346V2.743H0z" transform="translate(-1.19 3.788)"/>
                </g>
                <g id="Grupo_5" clip-path="url(#clip-path-2)" transform="translate(8.485 24.78)">
                    <path id="Caminho_26" d="M5.011 0a5.011 5.011 0 0 1 5.011 5.011C10.022 7.779 0 7.779 0 5.011A5.011 5.011 0 0 1 5.011 0z" class="cls-9" transform="translate(2.052 7.404)"/>
                    <path id="Caminho_22" d="M613.89 286.224a8.6 8.6 0 0 1 14.11-6.591c1.874 1.557-14.11 11.338-14.11 6.591zm8.6-6.913a6.913 6.913 0 0 0-6.913 6.913c0 3.818 13.825 3.818 13.825 0a6.922 6.922 0 0 0-6.917-6.912z" class="cls-9" transform="translate(-615.422 -273.722)"/>
                    <path id="Caminho_23" d="M601.95 277.965a12.275 12.275 0 1 1 24.55 0c-.007 6.776-24.55 6.779-24.55 0zm12.275-10.509a10.509 10.509 0 0 0-10.509 10.509c0 5.8 21.018 5.8 21.018 0a10.521 10.521 0 0 0-10.509-10.506z" class="cls-9" transform="translate(-607.162 -265.463)"/>
                </g>
                <path id="Caminho_25" fill="#e0e0e0" d="M622.155 189.746V186.6a3.349 3.349 0 0 0-2.959-2.712H594.04a3.066 3.066 0 0 0-2.7 2.712v3.144h30.818z" transform="translate(-591.337 -183.89)"/>
                <circle id="Elipse_6" cx=".906" cy=".906" r=".906" class="cls-11" transform="translate(2.897 2.186)"/>
                <circle id="Elipse_7" cx=".906" cy=".906" r=".906" class="cls-11" transform="translate(6.213 2.186)"/>
            </g>
        </g>
    </g>
    <circle id="Elipse_8" cx="5.079" cy="5.079" r="5.079" class="cls-9" transform="translate(10.229 11.937)"/>
</svg>
