<svg xmlns="http://www.w3.org/2000/svg" width="92.222" height="22.641" viewBox="0 0 92.222 22.641">
    <path fill="#001334" d="M178.115 300.7h9.33v1.737h-3.673v9.791h-2.014v-9.791H178.1zm8.93 3.182h1.721v1.618h.031a2.028 2.028 0 0 1 .323-.661 2.555 2.555 0 0 1 .569-.584 2.514 2.514 0 0 1 .738-.43 2.146 2.146 0 0 1 .815-.169c.215 0 .369.015.446.015a1.35 1.35 0 0 0 .246.031v1.768a3.1 3.1 0 0 0-.4-.061 3.494 3.494 0 0 0-.4-.031 2.133 2.133 0 0 0-.876.184 2.221 2.221 0 0 0-.722.538 2.916 2.916 0 0 0-.492.891 3.762 3.762 0 0 0-.184 1.23v3.966h-1.844zm13.341 8.346h-1.814v-1.168h-.031a2.575 2.575 0 0 1-1.014 1.014 2.677 2.677 0 0 1-1.368.384 3.044 3.044 0 0 1-2.382-.815 3.564 3.564 0 0 1-.738-2.459v-5.3h1.844V309a2.181 2.181 0 0 0 .43 1.552 1.517 1.517 0 0 0 1.184.461 2.268 2.268 0 0 0 .968-.184 1.671 1.671 0 0 0 .63-.477 1.87 1.87 0 0 0 .354-.722 3.412 3.412 0 0 0 .108-.907v-4.842h1.843v8.346zm3.136-2.674a1.451 1.451 0 0 0 .615 1.137 2.42 2.42 0 0 0 1.276.323 4.221 4.221 0 0 0 .584-.046 2.57 2.57 0 0 0 .615-.154 1.081 1.081 0 0 0 .476-.338.787.787 0 0 0 .169-.569.827.827 0 0 0-.261-.584 2.179 2.179 0 0 0-.615-.369 5.331 5.331 0 0 0-.861-.231c-.323-.061-.646-.138-.984-.215s-.676-.169-1-.277a2.863 2.863 0 0 1-.861-.446 1.916 1.916 0 0 1-.6-.707 2.209 2.209 0 0 1-.231-1.061 1.818 1.818 0 0 1 .338-1.137 2.451 2.451 0 0 1 .845-.738 3.838 3.838 0 0 1 1.137-.4 6.518 6.518 0 0 1 1.184-.108 5.288 5.288 0 0 1 1.23.138 3.108 3.108 0 0 1 1.061.446 2.434 2.434 0 0 1 .784.8 2.769 2.769 0 0 1 .4 1.183H206.9a1.183 1.183 0 0 0-.6-.891 2.475 2.475 0 0 0-1.091-.231c-.123 0-.292.015-.461.031a2.723 2.723 0 0 0-.507.123 1.2 1.2 0 0 0-.4.261.615.615 0 0 0-.169.446.676.676 0 0 0 .231.538 2.09 2.09 0 0 0 .615.354 5.332 5.332 0 0 0 .861.231c.323.061.661.138 1 .215s.661.169.984.277a2.693 2.693 0 0 1 .861.446 2.216 2.216 0 0 1 .615.692 2.124 2.124 0 0 1 .231 1.03 2.241 2.241 0 0 1-.338 1.26 2.876 2.876 0 0 1-.876.845 4.344 4.344 0 0 1-1.2.476 6.439 6.439 0 0 1-1.306.154 5.507 5.507 0 0 1-1.46-.184 3.719 3.719 0 0 1-1.168-.538 2.581 2.581 0 0 1-.769-.907 2.962 2.962 0 0 1-.307-1.291h1.86v.015zm6.071-5.672h1.4v-2.521h1.844v2.505h1.66v1.368h-1.66v4.457a4.733 4.733 0 0 0 .031.507 1.066 1.066 0 0 0 .108.354.6.6 0 0 0 .261.215 1.37 1.37 0 0 0 .492.077 3.217 3.217 0 0 0 .384-.015 3.334 3.334 0 0 0 .384-.062v1.43c-.2.031-.4.046-.6.061a3.816 3.816 0 0 1-.6.031 3.973 3.973 0 0 1-1.168-.138 1.678 1.678 0 0 1-.692-.4 1.429 1.429 0 0 1-.338-.661 5.249 5.249 0 0 1-.108-.922v-4.918h-1.4v-1.368zm6.194 0h1.737v1.137h.031a2.283 2.283 0 0 1 1.076-1.045 3.484 3.484 0 0 1 1.506-.323 3.788 3.788 0 0 1 1.721.354 3.231 3.231 0 0 1 1.214.953 3.976 3.976 0 0 1 .722 1.414 6.209 6.209 0 0 1 .031 3.351 4.521 4.521 0 0 1-.661 1.4 3.27 3.27 0 0 1-1.122.968 3.317 3.317 0 0 1-1.6.369 4.7 4.7 0 0 1-.8-.077 3.4 3.4 0 0 1-.769-.231 2.756 2.756 0 0 1-.676-.415 2.34 2.34 0 0 1-.523-.584h-.031v4.165H215.8v-11.436zm6.44 4.181a3.744 3.744 0 0 0-.154-1.091 2.783 2.783 0 0 0-.446-.938 2.458 2.458 0 0 0-.722-.661 1.965 1.965 0 0 0-1-.246 2.041 2.041 0 0 0-1.752.8 3.641 3.641 0 0 0-.584 2.152 3.981 3.981 0 0 0 .154 1.168 2.6 2.6 0 0 0 .461.922 2.2 2.2 0 0 0 .738.615 2.083 2.083 0 0 0 1 .231 2.044 2.044 0 0 0 1.061-.261 2.476 2.476 0 0 0 .722-.661 2.7 2.7 0 0 0 .4-.938 5.277 5.277 0 0 0 .123-1.093zm3.243-7.362h1.844v1.737h-1.844zm0 3.182h1.844v8.346h-1.844zm3.489-3.182h1.841v11.528h-1.84zm7.47 11.758a4.393 4.393 0 0 1-1.783-.338 4.048 4.048 0 0 1-1.322-.907 3.948 3.948 0 0 1-.815-1.4 5.464 5.464 0 0 1-.292-1.768 4.992 4.992 0 0 1 .292-1.752 4.088 4.088 0 0 1 .815-1.4 3.686 3.686 0 0 1 1.322-.907 4.665 4.665 0 0 1 1.783-.338 4.391 4.391 0 0 1 1.783.338 3.825 3.825 0 0 1 1.322.907 3.949 3.949 0 0 1 .815 1.4 5.371 5.371 0 0 1 .292 1.752 5.019 5.019 0 0 1-.292 1.768 4.351 4.351 0 0 1-.815 1.4 3.687 3.687 0 0 1-1.322.907 4.609 4.609 0 0 1-1.782.337zm0-1.46a2.126 2.126 0 0 0 1.061-.261 2.225 2.225 0 0 0 .738-.676 2.9 2.9 0 0 0 .43-.938 4.193 4.193 0 0 0 0-2.136 2.756 2.756 0 0 0-.43-.938 2.335 2.335 0 0 0-.738-.661 2.168 2.168 0 0 0-1.061-.261 2.125 2.125 0 0 0-1.061.261 2.353 2.353 0 0 0-.738.661 2.756 2.756 0 0 0-.43.938 4.192 4.192 0 0 0 0 2.136 2.757 2.757 0 0 0 .43.938 2.383 2.383 0 0 0 .738.676 2.013 2.013 0 0 0 1.062.262zm4.765-7.116h1.4v-2.521h1.844v2.505h1.66v1.368h-1.66v4.457a4.728 4.728 0 0 0 .031.507 1.066 1.066 0 0 0 .108.354.6.6 0 0 0 .261.215 1.37 1.37 0 0 0 .492.077 3.218 3.218 0 0 0 .384-.015 3.333 3.333 0 0 0 .384-.062v1.43c-.2.031-.4.046-.6.061a3.816 3.816 0 0 1-.6.031 3.973 3.973 0 0 1-1.168-.138 1.678 1.678 0 0 1-.692-.4 1.428 1.428 0 0 1-.338-.661 5.24 5.24 0 0 1-.108-.922v-4.919h-1.4v-1.368z" transform="translate(-153.876 -292.677)"/>
    <path fill="#00b67a" d="M42.587 256.523h-8.438l-2.6-8.023-2.613 8.023-8.438-.015 6.824 4.965-2.611 8.027 6.824-4.965 6.825 4.965-2.6-8.023z" transform="translate(-20.5 -248.5)"/>
    <path fill="#005128" d="M97.2 334.714l-.584-1.814-4.216 3.059z" transform="translate(-81.349 -319.927)"/>
</svg>
