<svg xmlns="http://www.w3.org/2000/svg" width="140" height="25" viewBox="0 0 140 25">
    <defs>
        <style>
            .cls-1{fill:#00b67a}.cls-2{fill:#fff}
        </style>
    </defs>
    <g id="Group_56" transform="translate(0 -.498)">
        <g id="Group_37">
            <path id="Rectangle_23" d="M0 0H26V25H0z" class="cls-1" transform="translate(0 .498)"/>
            <g id="Group_36" transform="translate(3.999 4.673)">
                <g id="Group_35">
                    <path id="Path_10" d="M38.45 255.021h-6.858l-2.111-6.521-2.124 6.521-6.858-.012 5.546 4.035-2.124 6.521 5.546-4.035 5.546 4.035-2.113-6.522z" class="cls-2" transform="translate(-20.5 -248.5)"/>
                    <path id="Path_11" fill="#00b67a" d="M96.3 334.375l-.475-1.475-3.425 2.487z" opacity="0.7" transform="translate(-83.419 -322.359)"/>
                </g>
            </g>
        </g>
        <g id="Group_38" transform="translate(28.499)">
            <path id="Rectangle_23-2" d="M0 0H26V25H0z" class="cls-1" transform="translate(-.499 .498)"/>
            <g id="Group_36-2" transform="translate(4.013 4.673)">
                <g id="Group_35-2">
                    <path id="Path_10-2" d="M38.45 255.021h-6.858l-2.111-6.521-2.124 6.521-6.858-.012 5.546 4.035-2.124 6.521 5.546-4.035 5.546 4.035-2.113-6.522z" class="cls-2" transform="translate(-20.5 -248.5)"/>
                    <path id="Path_11-2" d="M96.3 334.375l-.475-1.475-3.425 2.487z" class="cls-1" transform="translate(-83.419 -322.359)"/>
                </g>
            </g>
        </g>
        <g id="Group_39" transform="translate(56.997)">
            <path id="Rectangle_23-3" d="M0 0H26V25H0z" class="cls-1" transform="translate(.003 .498)"/>
            <g id="Group_36-3" transform="translate(4.028 4.673)">
                <g id="Group_35-3">
                    <path id="Path_10-3" d="M38.45 255.021h-6.858l-2.111-6.521-2.124 6.521-6.858-.012 5.546 4.035-2.124 6.521 5.546-4.035 5.546 4.035-2.113-6.522z" class="cls-2" transform="translate(-20.5 -248.5)"/>
                    <path id="Path_11-3" d="M96.3 334.375l-.475-1.475-3.425 2.487z" class="cls-1" transform="translate(-83.419 -322.359)"/>
                </g>
            </g>
        </g>
        <g id="Group_40" transform="translate(85.496)">
            <path id="Rectangle_23-4" d="M0 0H27V25H0z" class="cls-1" transform="translate(-.496 .498)"/>
            <g id="Group_36-4" transform="translate(4.043 4.673)">
                <g id="Group_35-4">
                    <path id="Path_10-4" d="M38.45 255.021h-6.858l-2.111-6.521-2.124 6.521-6.858-.012 5.546 4.035-2.124 6.521 5.546-4.035 5.546 4.035-2.113-6.522z" class="cls-2" transform="translate(-20.5 -248.5)"/>
                    <path id="Path_11-4" d="M96.3 334.375l-.475-1.475-3.425 2.487z" class="cls-1" transform="translate(-83.419 -322.359)"/>
                </g>
            </g>
        </g>
        <g id="Group_41" transform="translate(113.995)">
            <path id="Rectangle_23-5" d="M0 0H26V25H0z" class="cls-1" transform="translate(.005 .498)"/>
            <g id="Group_36-5" transform="translate(4.057 4.673)">
                <g id="Group_35-5">
                    <path id="Path_10-5" d="M38.45 255.021h-6.858l-2.111-6.521-2.124 6.521-6.858-.012 5.546 4.035-2.124 6.521 5.546-4.035 5.546 4.035-2.113-6.522z" class="cls-2" transform="translate(-20.5 -248.5)"/>
                    <path id="Path_11-5" d="M96.3 334.375l-.475-1.475-3.425 2.487z" class="cls-1" transform="translate(-83.419 -322.359)"/>
                </g>
            </g>
        </g>
    </g>
</svg>
