<svg xmlns="http://www.w3.org/2000/svg" width="80" height="41" viewBox="0 0 80 41">
    <defs>
        <style>
            .cls-8{fill:#fff}.cls-9{fill:#dce5e5}
        </style>
    </defs>
    <g id="Group_4245" transform="translate(-92 -38)">
        <path id="Rectangle_120" fill="#13447c" d="M0 0H80V41H0z" transform="translate(92 38)"/>
        <g id="mastercard" transform="translate(112.434 47.344)">
            <path id="Path_66" fill="#ffb600" d="M224.71 112.355a11.555 11.555 0 0 1-23.11 0 11.555 11.555 0 1 1 23.11 0z" transform="translate(-186.193 -100.8)"/>
            <path id="Path_67" fill="#f7981d" d="M213.155 100.8a11.585 11.585 0 0 1 11.555 11.555 11.555 11.555 0 0 1-23.11 0" transform="translate(-186.193 -100.8)"/>
            <path id="Path_68" fill="#ff8500" d="M352.8 100.8a11.585 11.585 0 0 1 11.555 11.555A11.546 11.546 0 0 1 352.8 123.91" transform="translate(-325.838 -100.8)"/>
            <path id="Path_69" fill="#ff5050" d="M11.433 100.8a11.555 11.555 0 0 0 .122 23.11 11.69 11.69 0 0 0 7.764-3 10.986 10.986 0 0 0 1.162-1.223H18.1a14.1 14.1 0 0 1-.856-1.162h4.1a7.834 7.834 0 0 0 .673-1.223h-5.449a7.285 7.285 0 0 1-.489-1.223h6.358a12.14 12.14 0 0 0 .611-3.668 15.78 15.78 0 0 0-.245-2.445h-7.091a8.938 8.938 0 0 1 .306-1.223h6.358a7.287 7.287 0 0 0-.489-1.223h-5.38a12.124 12.124 0 0 1 .673-1.223h4.1a5.814 5.814 0 0 0-.917-1.223H18.1a10.421 10.421 0 0 1 1.162-1.162 11.282 11.282 0 0 0-7.764-3c-.004-.112-.004-.112-.065-.112z" transform="translate(0 -100.8)"/>
            <path id="Path_70" fill="#e52836" d="M0 113.833a11.546 11.546 0 0 0 11.555 11.555 11.69 11.69 0 0 0 7.764-3 10.985 10.985 0 0 0 1.162-1.223H18.1a14.1 14.1 0 0 1-.856-1.162h4.1a7.831 7.831 0 0 0 .673-1.223h-5.449a7.287 7.287 0 0 1-.489-1.223h6.358a12.14 12.14 0 0 0 .611-3.668 15.78 15.78 0 0 0-.245-2.445h-7.091a8.937 8.937 0 0 1 .306-1.223h6.358a7.286 7.286 0 0 0-.489-1.221h-5.38a12.124 12.124 0 0 1 .673-1.223h4.1a5.814 5.814 0 0 0-.917-1.223H18.1a10.424 10.424 0 0 1 1.162-1.162 11.282 11.282 0 0 0-7.764-3h-.061" transform="translate(0 -102.278)"/>
            <path id="Path_71" fill="#cb2026" d="M149.722 125.388a11.69 11.69 0 0 0 7.764-3 10.988 10.988 0 0 0 1.162-1.223h-2.384a14.1 14.1 0 0 1-.856-1.162h4.1a7.827 7.827 0 0 0 .672-1.223h-5.441a7.288 7.288 0 0 1-.489-1.223h6.35a12.14 12.14 0 0 0 .611-3.668 15.78 15.78 0 0 0-.245-2.445h-7.086a8.944 8.944 0 0 1 .306-1.223h6.358a7.285 7.285 0 0 0-.489-1.223h-5.38a12.121 12.121 0 0 1 .673-1.223h4.1a5.814 5.814 0 0 0-.917-1.223h-2.262a10.425 10.425 0 0 1 1.162-1.162 11.282 11.282 0 0 0-7.764-3h-.067" transform="translate(-138.167 -102.278)"/>
            <g id="Group_476" transform="translate(1.1 8.559)">
                <path id="Path_72" d="M183.373 225.38l.183-1.039a2.645 2.645 0 0 1-.306.061c-.428 0-.489-.245-.428-.367l.367-2.14h.673l.183-1.162h-.611l.122-.734h-1.223s-.734 4.035-.734 4.524a.918.918 0 0 0 .978 1.039 1.877 1.877 0 0 0 .796-.182z" class="cls-8" transform="translate(-168.822 -219.45)"/>
                <path id="Path_73" d="M210.4 231.458a1.945 1.945 0 0 0 2.14 2.14 3.174 3.174 0 0 0 1.284-.183l.245-1.162a3.665 3.665 0 0 1-1.284.306c-1.345 0-1.1-.978-1.1-.978h2.507a7.925 7.925 0 0 0 .183-1.1 1.656 1.656 0 0 0-1.773-1.773c-1.285-.124-2.202 1.221-2.202 2.75zm2.14-1.773c.673 0 .55.795.55.856h-1.345c0-.062.122-.856.795-.856z" class="cls-8" transform="translate(-195.421 -227.484)"/>
                <path id="Path_74" d="M299.363 218.73l.245-1.345a3 3 0 0 1-1.039.306c-.856 0-1.223-.673-1.223-1.406 0-1.467.734-2.262 1.59-2.262a2.042 2.042 0 0 1 1.1.367l.183-1.284a4.3 4.3 0 0 0-1.406-.306c-1.406 0-2.812 1.223-2.812 3.546 0 1.528.734 2.568 2.2 2.568a5.485 5.485 0 0 0 1.162-.184z" class="cls-8" transform="translate(-274.48 -212.8)"/>
                <path id="Path_75" d="M88.723 227.2a4.33 4.33 0 0 0-1.467.245l-.183 1.039a3.614 3.614 0 0 1 1.345-.245c.428 0 .795.061.795.428 0 .245-.061.306-.061.306H88.6c-1.039 0-2.2.428-2.2 1.834 0 1.1.734 1.345 1.162 1.345a1.837 1.837 0 0 0 1.284-.55l-.061.489h1.1l.489-3.363a1.449 1.449 0 0 0-1.651-1.528zm.245 2.751c0 .183-.122 1.162-.856 1.162a.477.477 0 0 1-.489-.489c0-.306.183-.734 1.1-.734a.964.964 0 0 0 .245.061z" class="cls-8" transform="translate(-80.898 -226.1)"/>
                <path id="Path_76" d="M136.606 231.413a1.567 1.567 0 0 0 1.834-1.59c0-1.528-1.467-1.223-1.467-1.834 0-.306.245-.428.673-.428.183 0 .856.061.856.061l.183-1.1a4.644 4.644 0 0 0-1.162-.122c-.917 0-1.834.367-1.834 1.59 0 1.406 1.529 1.284 1.529 1.834 0 .367-.428.428-.734.428a4 4 0 0 1-1.1-.183l-.183 1.1c.06.122.366.244 1.405.244z" class="cls-8" transform="translate(-125.968 -225.361)"/>
                <path id="Path_77" d="M430.685 214.4l-.245 1.651a1.7 1.7 0 0 0-1.162-.611c-1.1 0-2.079 1.345-2.079 2.935 0 .978.489 2.018 1.528 2.018a1.632 1.632 0 0 0 1.162-.489l-.061.428h1.223l.917-5.869zm-.55 3.24c0 .673-.306 1.528-.978 1.528-.428 0-.673-.367-.673-.978 0-.978.428-1.59.978-1.59.428 0 .673.307.673 1.04z" class="cls-8" transform="translate(-395.653 -214.278)"/>
                <path id="Path_78" d="M15.562 220.269l.734-4.4.122 4.4h.856l1.59-4.4-.673 4.4h1.284l.978-5.869h-2.018l-1.223 3.607-.061-3.607h-1.773l-.978 5.869z" class="cls-8" transform="translate(-14.4 -214.278)"/>
                <path id="Path_79" d="M261.345 233.569c.367-2.018.428-3.668 1.284-3.363a4.8 4.8 0 0 1 .428-1.406h-.245c-.55 0-.978.734-.978.734l.122-.673h-1.162L260 233.63h1.345z" class="cls-8" transform="translate(-241.231 -227.577)"/>
                <path id="Path_80" d="M348.723 227.2a4.33 4.33 0 0 0-1.467.245l-.183 1.039a3.613 3.613 0 0 1 1.345-.245c.428 0 .795.061.795.428 0 .245-.061.306-.061.306h-.55c-1.039 0-2.2.428-2.2 1.834 0 1.1.734 1.345 1.162 1.345a1.837 1.837 0 0 0 1.284-.55l-.061.489h1.1l.489-3.363a1.428 1.428 0 0 0-1.653-1.528zm.306 2.751c0 .183-.122 1.162-.856 1.162a.477.477 0 0 1-.489-.489c0-.306.183-.734 1.1-.734.184.061.184.061.245.061z" class="cls-8" transform="translate(-321.028 -226.1)"/>
                <path id="Path_81" d="M395.745 233.569c.367-2.018.428-3.668 1.284-3.363a4.8 4.8 0 0 1 .428-1.406h-.245c-.55 0-.978.734-.978.734l.122-.673h-1.162l-.795 4.769h1.345z" class="cls-8" transform="translate(-365.36 -227.577)"/>
            </g>
            <g id="Group_477" transform="translate(1.1 8.559)">
                <path id="Path_82" d="M180 224.524a.918.918 0 0 0 .978 1.039 2.327 2.327 0 0 0 .917-.183l.183-1.039a2.65 2.65 0 0 1-.306.061c-.428 0-.489-.245-.428-.367l.367-2.14h.673l.183-1.162h-.611l.122-.734" class="cls-9" transform="translate(-167.345 -219.45)"/>
                <path id="Path_83" d="M218.4 231.458c0 1.712.55 2.14 1.528 2.14a3.174 3.174 0 0 0 1.284-.183l.245-1.162a3.665 3.665 0 0 1-1.284.306c-1.345 0-1.1-.978-1.1-.978h2.507a7.927 7.927 0 0 0 .183-1.1 1.656 1.656 0 0 0-1.773-1.773c-1.284-.124-1.59 1.221-1.59 2.75zm1.528-1.773c.673 0 .795.795.795.856h-1.59c.001-.062.123-.856.795-.856z" class="cls-9" transform="translate(-202.81 -227.484)"/>
                <path id="Path_84" d="M306.751 218.73l.245-1.345a3 3 0 0 1-1.039.306c-.856 0-1.223-.673-1.223-1.406 0-1.467.734-2.262 1.59-2.262a2.041 2.041 0 0 1 1.1.367l.183-1.284a4.3 4.3 0 0 0-1.406-.306c-1.406 0-2.2 1.223-2.2 3.546 0 1.528.122 2.568 1.59 2.568a5.485 5.485 0 0 0 1.16-.184z" class="cls-9" transform="translate(-281.868 -212.8)"/>
                <path id="Path_85" d="M87.073 230.023a3.615 3.615 0 0 1 1.345-.245c.428 0 .795.061.795.428 0 .245-.061.306-.061.306H88.6c-1.039 0-2.2.428-2.2 1.834 0 1.1.734 1.345 1.162 1.345a1.837 1.837 0 0 0 1.284-.55l-.061.489h1.1l.489-3.363c0-1.406-1.223-1.467-1.712-1.467m.917 2.629a2 2 0 0 1-1.467 1.162.477.477 0 0 1-.489-.489c0-.306.183-.734 1.1-.734a5 5 0 0 0 .856.061z" class="cls-9" transform="translate(-80.898 -227.577)"/>
                <path id="Path_86" d="M136 231.291a5.174 5.174 0 0 0 1.406.122 1.567 1.567 0 0 0 1.834-1.59c0-1.528-1.467-1.223-1.467-1.834 0-.306.245-.428.673-.428.183 0 .856.061.856.061l.183-1.1a4.644 4.644 0 0 0-1.162-.122c-.917 0-1.223.367-1.223 1.59 0 1.406.917 1.284.917 1.834 0 .367-.428.428-.734.428" class="cls-9" transform="translate(-126.707 -225.361)"/>
                <path id="Path_87" d="M437.775 216.79a1.7 1.7 0 0 0-1.162-.611c-1.1 0-1.467 1.345-1.467 2.935 0 .978-.122 2.018.917 2.018a1.632 1.632 0 0 0 1.162-.489l-.061.428h1.223l.917-5.869m-1.59 3.179c0 .673-.55 1.528-1.223 1.528-.428 0-.672-.367-.672-.978 0-.978.428-1.59.978-1.59a.934.934 0 0 1 .917 1.038z" class="cls-9" transform="translate(-402.988 -215.017)"/>
                <path id="Path_88" d="M15.562 220.269l.734-4.4.122 4.4h.856l1.59-4.4-.673 4.4h1.284l.978-5.869h-1.529l-1.712 3.607-.061-3.607h-.673l-2.078 5.869z" class="cls-9" transform="translate(-14.4 -214.278)"/>
                <path id="Path_89" d="M260.8 233.569h1.284c.367-2.018.428-3.668 1.284-3.363a4.8 4.8 0 0 1 .428-1.406h-.245c-.55 0-.978.734-.978.734l.122-.673" class="cls-9" transform="translate(-241.97 -227.577)"/>
                <path id="Path_90" d="M347.073 230.023a3.614 3.614 0 0 1 1.345-.245c.428 0 .795.061.795.428 0 .245-.061.306-.061.306h-.55c-1.039 0-2.2.428-2.2 1.834 0 1.1.734 1.345 1.162 1.345a1.837 1.837 0 0 0 1.284-.55l-.061.489h1.1l.489-3.363c0-1.406-1.223-1.467-1.712-1.467m.917 2.629a2 2 0 0 1-1.467 1.162.477.477 0 0 1-.489-.489c0-.306.184-.734 1.1-.734a5.379 5.379 0 0 0 .854.061z" class="cls-9" transform="translate(-321.028 -227.577)"/>
                <path id="Path_91" d="M395.2 233.569h1.284c.367-2.018.428-3.668 1.284-3.363a4.8 4.8 0 0 1 .428-1.406h-.244c-.55 0-.978.734-.978.734l.122-.673" class="cls-9" transform="translate(-366.099 -227.577)"/>
            </g>
        </g>
    </g>
</svg>
