<svg xmlns="http://www.w3.org/2000/svg" width="80" height="41" viewBox="0 0 80 41">
    <g>
        <path fill="#fff" d="M0 0H80V41H0z" transform="translate(0 -144) translate(0 144)"/>
        <path fill="#872471" fill-rule="evenodd" d="M63080.5 64114.281a2.141 2.141 0 1 0-2.145-2.141 2.14 2.14 0 0 0 2.145 2.141zm-16.414 1.16a15.159 15.159 0 0 1-2.477 4.246v-8.715l-4.488.891v15.789h4.488v-4.879a16.888 16.888 0 0 1 1.941 4.879h5.371a34.85 34.85 0 0 0-2.855-6.281 19.579 19.579 0 0 0 3.148-5.93zm11.793-.168c-4.02.129-6.059 1.934-6.059 5.516v6.863h4.383v-5.6c0-2.145.285-3.062 2.824-3.148v-3.57a6.117 6.117 0 0 0-1.144-.061zm-26.273 1.906c-.551-.035-1.828-.117-1.828-1.266 0-1.379 1.836-1.379 2.523-1.379a15.028 15.028 0 0 1 3.887.691s.625.219 1.156.445l.047.012v-3.781l-.066-.023a15.529 15.529 0 0 0-5.7-.906c-4.9 0-6.633 2.855-6.633 5.3 0 1.41.605 4.727 6.219 5.109.473.027 1.734.1 1.734 1.285 0 .977-1.035 1.555-2.773 1.555a13.729 13.729 0 0 1-4.875-.945v3.895a22.708 22.708 0 0 0 5.8.66c4.785 0 6.93-2.7 6.93-5.375 0-3.035-2.4-5.008-6.426-5.277zm28.723 10.473h4.344v-12.2h-4.344zm12.531-15.9v15.9h4.348v-16.68zm-6.344 0l4.344-.781v16.68h-4.344z" transform="translate(0 -144) translate(-63028.777 -63954.188)"/>
    </g>
</svg>
